<svg width="53" height="51" viewBox="0 0 53 51" fill="none" xmlns="http://www.w3.org/2000/svg">
<g id="ion:fitness">
<path id="Vector" d="M20.0499 15.2243C20.1983 14.9386 20.4325 14.7023 20.7221 14.5462C21.0117 14.3901 21.3434 14.3213 21.6741 14.3488C22.0048 14.3763 22.3193 14.4988 22.5768 14.7003C22.8343 14.9019 23.0229 15.1733 23.1182 15.4793L26.8861 27.5679L29.9916 21.5993C30.1292 21.3346 30.3406 21.112 30.6022 20.9564C30.8639 20.8009 31.1653 20.7185 31.4729 20.7185C31.7804 20.7185 32.0819 20.8009 32.3436 20.9564C32.6052 21.112 32.8166 21.3346 32.9542 21.5993L35.805 27.0938H45.8212C47.3124 24.1353 48.069 20.8839 48.0313 17.596C47.966 11.4093 42.8079 6.375 36.5327 6.375C31.5547 6.375 28.2515 9.31746 26.5 11.4551C24.7527 9.31447 21.4453 6.375 16.4673 6.375C10.1922 6.375 5.03397 11.4093 4.96876 17.596C4.94194 19.7324 5.25365 21.8602 5.89315 23.9062H15.5387L20.0499 15.2243Z" fill="#F4ACB7"/>
<path id="Vector_2" d="M33.2999 29.4007L31.4688 25.8765L27.9813 32.5882C27.8437 32.8529 27.6322 33.0754 27.3706 33.2309C27.109 33.3864 26.8075 33.4688 26.5 33.4688C26.4538 33.4688 26.4061 33.4668 26.3571 33.4628C26.0256 33.4363 25.7101 33.3144 25.4516 33.1129C25.1931 32.9115 25.0037 32.6398 24.9079 32.3332L21.14 20.2446L18.0345 26.2132C17.8976 26.4765 17.6876 26.6981 17.4278 26.8536C17.1679 27.009 16.8684 27.0921 16.5625 27.0938H7.17881C8.14495 29.0388 9.43096 30.9533 11.0368 32.8372C12.9798 35.1163 16.5025 38.76 24.6378 44.0742C25.1864 44.436 25.8359 44.6296 26.501 44.6296C27.1661 44.6296 27.8157 44.436 28.3643 44.0742C36.4996 38.76 40.0222 35.1163 41.9652 32.8372C42.665 32.0176 43.3215 31.1645 43.932 30.2813H34.7812C34.4737 30.2813 34.1723 30.1989 33.9106 30.0434C33.649 29.8879 33.4376 29.6654 33.2999 29.4007ZM48.0312 27.0938H45.8212C45.2706 28.1979 44.6393 29.2631 43.932 30.2813H48.0312C48.4705 30.2813 48.8918 30.1134 49.2024 29.8145C49.513 29.5156 49.6875 29.1102 49.6875 28.6875C49.6875 28.2648 49.513 27.8595 49.2024 27.5606C48.8918 27.2617 48.4705 27.0938 48.0312 27.0938ZM4.96875 23.9063C4.52949 23.9063 4.10821 24.0742 3.7976 24.3731C3.487 24.672 3.3125 25.0773 3.3125 25.5C3.3125 25.9227 3.487 26.3281 3.7976 26.627C4.10821 26.9259 4.52949 27.0938 4.96875 27.0938H7.17881C6.66653 26.0643 6.23673 24.9987 5.89314 23.9063H4.96875Z" fill="#9D8189"/>
</g>
</svg>
